<?xml version="1.0" encoding="UTF-8" standalone="no"?>
<!DOCTYPE svg PUBLIC "-//W3C//DTD SVG 1.1//EN" "http://www.w3.org/Graphics/SVG/1.1/DTD/svg11.dtd">
<svg width="100%" height="100%" viewBox="0 0 500 500" version="1.1" xmlns="http://www.w3.org/2000/svg" xmlns:xlink="http://www.w3.org/1999/xlink" xml:space="preserve" xmlns:serif="http://www.serif.com/" style="fill-rule:evenodd;clip-rule:evenodd;stroke-linejoin:round;stroke-miterlimit:2;">
    <g transform="matrix(1.13736,0,0,1.11363,-2696.85,-26.9491)">
        <path d="M2810.76,107.098L2810.76,385.359C2810.76,445.858 2786.12,473.184 2725.46,473.184L2455.83,473.184C2395.17,473.184 2371.15,448.634 2371.15,388.135L2371.15,105.711C2371.15,45.212 2395.79,24.199 2456.45,24.199L2727.21,24.199C2787.87,24.199 2810.76,46.598 2810.76,107.098Z" style="fill:rgb(44,176,104);"/>
    </g>
    <g transform="matrix(1.09873,0,0,1.1343,-1910.17,-62.6738)">
        <path d="M1808.97,170.921L1863.8,393.316L1935.38,393.316L1967.83,328.295L1997.07,393.316L2067.65,393.316L2128.91,170.921L2046.33,170.921L2012.87,291.372L1987.67,237.433L1946.69,237.433L1919.47,291.372L1889.74,170.921L1808.97,170.921Z" style="fill:white;"/>
    </g>
</svg>
