<?xml version="1.0" encoding="UTF-8" standalone="no"?>
<!DOCTYPE svg PUBLIC "-//W3C//DTD SVG 1.1//EN" "http://www.w3.org/Graphics/SVG/1.1/DTD/svg11.dtd">
<svg width="100%" height="100%" viewBox="0 0 500 500" version="1.1" xmlns="http://www.w3.org/2000/svg" xmlns:xlink="http://www.w3.org/1999/xlink" xml:space="preserve" xmlns:serif="http://www.serif.com/" style="fill-rule:evenodd;clip-rule:evenodd;stroke-linejoin:round;stroke-miterlimit:2;">
    <g transform="matrix(1.09873,0,0,1.1343,-1911.81,-30.9593)">
        <path d="M1855.64,401.284L1922.66,199.011L1991.59,198.206L2027.53,290.801L1995.38,396.838L1958.47,302.576L1923.17,401.564L1855.64,401.284Z" style="fill:rgb(44,176,104);"/>
    </g>
    <g transform="matrix(1.09873,0,0,1.1343,-1909.88,-30.6089)">
        <path d="M1997.23,401.549L2029.32,295.405L2089.42,97.387L2179.77,96.964L2089.85,401.02L1997.23,401.549Z" style="fill:rgb(44,176,104);"/>
    </g>
    <g transform="matrix(1.09873,0,0,1.1343,-1914.95,-31.561)">
        <path d="M1853.15,401.856L1831.44,401.695L1755.47,97.428L1843.33,97.28L1890.65,288.295L1853.15,401.856Z" style="fill:rgb(44,176,104);"/>
    </g>
</svg>
