<?xml version="1.0" encoding="UTF-8" standalone="no"?>
<!DOCTYPE svg PUBLIC "-//W3C//DTD SVG 1.1//EN" "http://www.w3.org/Graphics/SVG/1.1/DTD/svg11.dtd">
<svg width="100%" height="100%" viewBox="0 0 1024 768" version="1.1" xmlns="http://www.w3.org/2000/svg" xmlns:xlink="http://www.w3.org/1999/xlink" xml:space="preserve" xmlns:serif="http://www.serif.com/" style="fill-rule:evenodd;clip-rule:evenodd;stroke-linecap:round;stroke-linejoin:round;stroke-miterlimit:1.5;">
    <g transform="matrix(1.08179,0,0,1.08179,-26.4184,15.8019)">
        <circle cx="513.037" cy="286.912" r="273.446" style="fill:white;stroke:rgb(81,81,81);stroke-width:2.77px;"/>
    </g>
    <g transform="matrix(0.894067,0,0,0.894067,67.0897,69.2696)">
        <circle cx="513.037" cy="286.912" r="273.446" style="fill:rgb(232,247,255);"/>
    </g>
    <g transform="matrix(2.95977,0,0,2.95977,-2201.7,-1066.2)">
        <path d="M922.462,398.679C962.065,398.679 994.217,430.832 994.217,470.435C994.217,510.038 962.065,542.191 922.462,542.191C882.859,542.191 850.706,510.038 850.706,470.435C850.706,430.832 882.859,398.679 922.462,398.679ZM922.462,401.355C888.34,401.355 854.121,428.169 854.121,470.181C854.121,512.194 888.34,538.479 922.462,538.479C956.584,538.479 991.346,510.441 991.346,470.181C991.346,429.922 956.584,401.355 922.462,401.355Z" style="fill:rgb(122,177,208);"/>
    </g>
    <g transform="matrix(1,0,0,1,13.7706,-57.0042)">
        <path d="M458.668,496.282C458.668,496.282 485.922,431.268 521.948,380.956C552.023,338.955 605.892,289.526 605.892,289.526" style="fill:none;stroke:rgb(203,203,203);stroke-width:4.07px;"/>
        <g transform="matrix(-0.817526,0.636929,-0.627732,-0.805722,1315.46,170.408)">
            <path d="M638.173,256.439C623.962,273.67 612.425,300.828 612.425,330.286C612.425,359.744 623.962,386.902 638.173,404.133C590.804,404.133 552.347,371.043 552.347,330.286C552.347,289.529 590.804,256.439 638.173,256.439Z" style="fill:rgb(227,227,227);"/>
        </g>
        <g transform="matrix(0.893022,0,0,0.921814,57.9691,26.3115)">
            <path d="M517.155,274.883C517.155,274.883 548.809,285.486 578.624,318.537C608.319,351.456 620.909,386.616 620.909,386.616C620.909,386.616 613.578,348.367 585.77,315.075C559.699,283.863 517.155,274.883 517.155,274.883Z" style="fill:rgb(203,203,203);"/>
        </g>
        <g transform="matrix(0.884145,-0.0367442,0.036701,0.883104,25.1135,93.7065)">
            <path d="M517.155,274.883C517.155,274.883 548.809,285.486 578.624,318.537C608.319,351.456 620.909,386.616 620.909,386.616C620.909,386.616 612.507,345.894 584.699,312.602C558.628,281.39 517.155,274.883 517.155,274.883Z" style="fill:rgb(203,203,203);"/>
        </g>
        <g transform="matrix(0.898529,-0.0372633,0.0340011,0.819867,-5.36791,140.179)">
            <path d="M517.155,274.883C517.155,274.883 548.809,285.486 578.624,318.537C608.319,351.456 620.909,386.616 620.909,386.616C620.909,386.616 614.158,347.603 586.35,314.311C560.279,283.099 517.155,274.883 517.155,274.883Z" style="fill:rgb(203,203,203);"/>
        </g>
        <g transform="matrix(0.728016,-0.0615492,0.0606288,0.717129,66.7169,216.51)">
            <path d="M517.155,274.883C517.155,274.883 548.809,285.486 578.624,318.537C608.319,351.456 620.909,386.616 620.909,386.616C620.909,386.616 614.821,349.153 587.013,315.862C560.942,284.649 517.155,274.883 517.155,274.883Z" style="fill:rgb(203,203,203);"/>
        </g>
        <g transform="matrix(0.749685,-0.000981832,0.000711118,0.54298,56.3194,267.345)">
            <path d="M517.155,274.883C517.155,274.883 548.809,285.486 578.624,318.537C608.319,351.456 620.909,386.616 620.909,386.616C620.909,386.616 611.809,345.477 584.001,312.186C557.93,280.974 517.155,274.883 517.155,274.883Z" style="fill:rgb(203,203,203);"/>
        </g>
        <g transform="matrix(0.558008,-0.140968,0.122832,0.486218,111.11,394.624)">
            <path d="M517.155,274.883C517.155,274.883 548.809,285.486 578.624,318.537C608.319,351.456 620.909,386.616 620.909,386.616C620.909,386.616 613.007,345.445 585.199,312.154C559.128,280.942 517.155,274.883 517.155,274.883Z" style="fill:rgb(203,203,203);"/>
        </g>
        <g transform="matrix(1,0,0,1,1.26506,-0.00439644)">
            <path d="M595.032,258.151L621.36,259.629" style="fill:none;stroke:rgb(156,156,156);stroke-width:4.07px;"/>
        </g>
        <g transform="matrix(1,0,0,1,1.48439,-1.87176)">
            <path d="M608.743,273.598L607.565,247.894" style="fill:none;stroke:rgb(158,158,158);stroke-width:4.07px;"/>
        </g>
        <g transform="matrix(-0.491249,0.917045,-1.0387,-0.556416,1173.34,391.39)">
            <path d="M467.972,439.805C449.276,455.338 435.503,475.29 435.682,492.543C435.954,518.811 451.786,529.994 468.159,543.326C442.641,542.493 409.737,518.259 409.737,492.855C409.737,467.45 443.334,443.436 467.972,439.805Z" style="fill:rgb(203,203,203);"/>
        </g>
    </g>
    <g id="Peas" transform="matrix(1,0,0,1,252.117,-52.4279)">
        <g transform="matrix(1.56912,0.0360897,-0.0454803,1.9774,-71.3604,-305.108)">
            <ellipse cx="145.695" cy="299.728" rx="5.986" ry="1.987" style="fill:rgb(181,196,205);"/>
        </g>
        <g transform="matrix(1.38794,0,0,1.38794,-372.356,-134.711)">
            <circle cx="372.041" cy="298.931" r="9.453" style="fill:rgb(129,178,72);"/>
            <clipPath id="_clip1">
                <circle cx="372.041" cy="298.931" r="9.453"/>
            </clipPath>
            <g clip-path="url(#_clip1)">
                <g transform="matrix(1,0,0,1,-2.19097,-1.33708)">
                    <circle cx="372.041" cy="298.931" r="9.453" style="fill:rgb(166,211,91);"/>
                </g>
                <g transform="matrix(0.319397,0,0,0.311922,249.894,203.15)">
                    <circle cx="372.041" cy="298.931" r="9.453" style="fill:rgb(202,227,159);"/>
                </g>
            </g>
        </g>
    </g>
    <g id="Peas1" serif:id="Peas" transform="matrix(1,0,0,1,276.776,-79.7541)">
        <g transform="matrix(1.56912,0.0360897,-0.0454803,1.9774,-71.3604,-305.108)">
            <ellipse cx="145.695" cy="299.728" rx="5.986" ry="1.987" style="fill:rgb(181,196,205);"/>
        </g>
        <g transform="matrix(1.38794,0,0,1.38794,-372.356,-134.711)">
            <circle cx="372.041" cy="298.931" r="9.453" style="fill:rgb(129,178,72);"/>
            <clipPath id="_clip2">
                <circle cx="372.041" cy="298.931" r="9.453"/>
            </clipPath>
            <g clip-path="url(#_clip2)">
                <g transform="matrix(1,0,0,1,-2.19097,-1.33708)">
                    <circle cx="372.041" cy="298.931" r="9.453" style="fill:rgb(166,211,91);"/>
                </g>
                <g transform="matrix(0.319397,0,0,0.311922,249.894,203.15)">
                    <circle cx="372.041" cy="298.931" r="9.453" style="fill:rgb(202,227,159);"/>
                </g>
            </g>
        </g>
    </g>
    <g id="Peas2" serif:id="Peas" transform="matrix(1,0,0,1,292.023,-43.9694)">
        <g transform="matrix(1.56912,0.0360897,-0.0454803,1.9774,-71.3604,-305.108)">
            <ellipse cx="145.695" cy="299.728" rx="5.986" ry="1.987" style="fill:rgb(181,196,205);"/>
        </g>
        <g transform="matrix(1.38794,0,0,1.38794,-372.356,-134.711)">
            <circle cx="372.041" cy="298.931" r="9.453" style="fill:rgb(129,178,72);"/>
            <clipPath id="_clip3">
                <circle cx="372.041" cy="298.931" r="9.453"/>
            </clipPath>
            <g clip-path="url(#_clip3)">
                <g transform="matrix(1,0,0,1,-2.19097,-1.33708)">
                    <circle cx="372.041" cy="298.931" r="9.453" style="fill:rgb(166,211,91);"/>
                </g>
                <g transform="matrix(0.319397,0,0,0.311922,249.894,203.15)">
                    <circle cx="372.041" cy="298.931" r="9.453" style="fill:rgb(202,227,159);"/>
                </g>
            </g>
        </g>
    </g>
    <g id="Peas3" serif:id="Peas" transform="matrix(1,0,0,1,257.739,16.5378)">
        <g transform="matrix(1.56912,0.0360897,-0.0454803,1.9774,-71.3604,-305.108)">
            <ellipse cx="145.695" cy="299.728" rx="5.986" ry="1.987" style="fill:rgb(181,196,205);"/>
        </g>
        <g transform="matrix(1.38794,0,0,1.38794,-372.356,-134.711)">
            <circle cx="372.041" cy="298.931" r="9.453" style="fill:rgb(129,178,72);"/>
            <clipPath id="_clip4">
                <circle cx="372.041" cy="298.931" r="9.453"/>
            </clipPath>
            <g clip-path="url(#_clip4)">
                <g transform="matrix(1,0,0,1,-2.19097,-1.33708)">
                    <circle cx="372.041" cy="298.931" r="9.453" style="fill:rgb(166,211,91);"/>
                </g>
                <g transform="matrix(0.319397,0,0,0.311922,249.894,203.15)">
                    <circle cx="372.041" cy="298.931" r="9.453" style="fill:rgb(202,227,159);"/>
                </g>
            </g>
        </g>
    </g>
    <g id="Peas4" serif:id="Peas" transform="matrix(1,0,0,1,290.89,2.9895)">
        <g transform="matrix(1.56912,0.0360897,-0.0454803,1.9774,-71.3604,-305.108)">
            <ellipse cx="145.695" cy="299.728" rx="5.986" ry="1.987" style="fill:rgb(181,196,205);"/>
        </g>
        <g transform="matrix(1.38794,0,0,1.38794,-372.356,-134.711)">
            <circle cx="372.041" cy="298.931" r="9.453" style="fill:rgb(129,178,72);"/>
            <clipPath id="_clip5">
                <circle cx="372.041" cy="298.931" r="9.453"/>
            </clipPath>
            <g clip-path="url(#_clip5)">
                <g transform="matrix(1,0,0,1,-2.19097,-1.33708)">
                    <circle cx="372.041" cy="298.931" r="9.453" style="fill:rgb(166,211,91);"/>
                </g>
                <g transform="matrix(0.319397,0,0,0.311922,249.894,203.15)">
                    <circle cx="372.041" cy="298.931" r="9.453" style="fill:rgb(202,227,159);"/>
                </g>
            </g>
        </g>
    </g>
    <g id="Peas5" serif:id="Peas" transform="matrix(0.811624,0,0,0.791987,291.927,41.1145)">
        <g transform="matrix(1.56912,0.0360897,-0.0454803,1.9774,-71.3604,-305.108)">
            <ellipse cx="145.695" cy="299.728" rx="5.986" ry="1.987" style="fill:rgb(181,196,205);"/>
        </g>
        <g transform="matrix(1.38794,0,0,1.38794,-372.356,-134.711)">
            <circle cx="372.041" cy="298.931" r="9.453" style="fill:rgb(129,178,72);"/>
            <clipPath id="_clip6">
                <circle cx="372.041" cy="298.931" r="9.453"/>
            </clipPath>
            <g clip-path="url(#_clip6)">
                <g transform="matrix(1,0,0,1,-2.19097,-1.33708)">
                    <circle cx="372.041" cy="298.931" r="9.453" style="fill:rgb(166,211,91);"/>
                </g>
                <g transform="matrix(0.319397,0,0,0.311922,249.894,203.15)">
                    <circle cx="372.041" cy="298.931" r="9.453" style="fill:rgb(202,227,159);"/>
                </g>
            </g>
        </g>
    </g>
    <g id="Peas6" serif:id="Peas" transform="matrix(1,0,0,1,234.896,-26.5)">
        <g transform="matrix(1.56912,0.0360897,-0.0454803,1.9774,-71.3604,-305.108)">
            <ellipse cx="145.695" cy="299.728" rx="5.986" ry="1.987" style="fill:rgb(181,196,205);"/>
        </g>
        <g transform="matrix(1.38794,0,0,1.38794,-372.356,-134.711)">
            <circle cx="372.041" cy="298.931" r="9.453" style="fill:rgb(129,178,72);"/>
            <clipPath id="_clip7">
                <circle cx="372.041" cy="298.931" r="9.453"/>
            </clipPath>
            <g clip-path="url(#_clip7)">
                <g transform="matrix(1,0,0,1,-2.19097,-1.33708)">
                    <circle cx="372.041" cy="298.931" r="9.453" style="fill:rgb(166,211,91);"/>
                </g>
                <g transform="matrix(0.319397,0,0,0.311922,249.894,203.15)">
                    <circle cx="372.041" cy="298.931" r="9.453" style="fill:rgb(202,227,159);"/>
                </g>
            </g>
        </g>
    </g>
    <g id="Peas7" serif:id="Peas" transform="matrix(1,0,0,1,223.509,13.3521)">
        <g transform="matrix(1.56912,0.0360897,-0.0454803,1.9774,-71.3604,-305.108)">
            <ellipse cx="145.695" cy="299.728" rx="5.986" ry="1.987" style="fill:rgb(181,196,205);"/>
        </g>
        <g transform="matrix(1.38794,0,0,1.38794,-372.356,-134.711)">
            <circle cx="372.041" cy="298.931" r="9.453" style="fill:rgb(129,178,72);"/>
            <clipPath id="_clip8">
                <circle cx="372.041" cy="298.931" r="9.453"/>
            </clipPath>
            <g clip-path="url(#_clip8)">
                <g transform="matrix(1,0,0,1,-2.19097,-1.33708)">
                    <circle cx="372.041" cy="298.931" r="9.453" style="fill:rgb(166,211,91);"/>
                </g>
                <g transform="matrix(0.319397,0,0,0.311922,249.894,203.15)">
                    <circle cx="372.041" cy="298.931" r="9.453" style="fill:rgb(202,227,159);"/>
                </g>
            </g>
        </g>
    </g>
    <g id="Peas8" serif:id="Peas" transform="matrix(0.87114,0,0,0.841864,258.119,94.245)">
        <g transform="matrix(1.56912,0.0360897,-0.0454803,1.9774,-71.3604,-305.108)">
            <ellipse cx="145.695" cy="299.728" rx="5.986" ry="1.987" style="fill:rgb(181,196,205);"/>
        </g>
        <g transform="matrix(1.38794,0,0,1.38794,-372.356,-134.711)">
            <circle cx="372.041" cy="298.931" r="9.453" style="fill:rgb(129,178,72);"/>
            <clipPath id="_clip9">
                <circle cx="372.041" cy="298.931" r="9.453"/>
            </clipPath>
            <g clip-path="url(#_clip9)">
                <g transform="matrix(1,0,0,1,-2.19097,-1.33708)">
                    <circle cx="372.041" cy="298.931" r="9.453" style="fill:rgb(166,211,91);"/>
                </g>
                <g transform="matrix(0.319397,0,0,0.311922,249.894,203.15)">
                    <circle cx="372.041" cy="298.931" r="9.453" style="fill:rgb(202,227,159);"/>
                </g>
            </g>
        </g>
    </g>
    <g transform="matrix(1,0,0,1,13.7706,-57.0042)">
        <g transform="matrix(1,0,0,1,1.56826,8.505)">
            <path d="M596.333,409.613C606.255,398.698 616.073,408.737 624.337,408.511C633.719,408.254 640.868,396.68 645.105,393.855C649.855,390.688 663.162,381.52 674.601,395.351C678.797,400.424 677.788,416.544 664.374,426.977C653.257,435.624 656.632,445.362 659.566,462.965C660.731,469.952 653.705,483.857 638.37,475.63C633.484,473.009 628.708,468.963 618.684,471.162C608.717,473.349 600.104,481.657 597.357,483.699C580.358,496.334 564.342,474.63 572.437,463.73C582.646,449.984 598.463,452.978 597.981,440.552C597.842,436.968 587.401,419.44 596.333,409.613Z" style="fill:rgb(207,156,83);stroke:rgb(174,174,174);stroke-opacity:0.36;stroke-width:1px;stroke-miterlimit:2.61628;"/>
        </g>
        <g transform="matrix(1.44791,0.126319,-0.0958947,1.09918,-236.974,-128.38)">
            <path d="M618.742,429.154C615.384,426.056 607.457,427.546 607.263,437.779C607.07,448.011 613.414,454.121 614.698,453.304C618.119,451.126 614.926,447.623 615.95,440.47C617.006,433.087 620.457,430.738 618.742,429.154Z" style="fill:rgb(255,209,144);"/>
        </g>
        <g transform="matrix(1.44857,0,0,1.54272,-292.372,-222.577)">
            <path d="M637.272,421.038C636.626,423.12 636.617,425.608 639.071,425.408C641.525,425.208 642.941,422.355 641.591,421.091C640.24,419.827 637.917,418.956 637.272,421.038Z" style="fill:rgb(173,123,52);"/>
        </g>
        <g transform="matrix(1.10761,-0.513845,0.585617,1.26231,-309.936,220.9)">
            <path d="M637.272,421.038C636.626,423.12 636.617,425.608 639.071,425.408C641.525,425.208 642.941,422.355 641.591,421.091C640.24,419.827 637.917,418.956 637.272,421.038Z" style="fill:rgb(173,123,52);"/>
        </g>
        <g transform="matrix(0.844265,0.241949,-0.297796,1.03914,227.76,-157.496)">
            <path d="M637.272,421.038C636.626,423.12 636.617,425.608 639.071,425.408C641.525,425.208 642.941,422.355 641.591,421.091C640.24,419.827 637.917,418.956 637.272,421.038Z" style="fill:rgb(173,123,52);"/>
        </g>
    </g>
    <g transform="matrix(1,0,0,1,-2.47241,-64.29)">
        <g transform="matrix(1.7769,0,1.38778e-17,1.76925,-1434,-477.22)">
            <path d="M883.413,481.728C879.435,470.332 870.886,470.882 871.212,454.279C871.537,437.677 875.109,398.908 879.47,399.161C883.854,399.415 878.703,454.84 883.952,455.267C886.978,455.513 890.062,399.777 894.517,400.203C898.926,400.624 895.141,455.9 898.65,456.044C903.875,456.259 906.506,401.553 910.371,401.906C914.129,402.25 912.438,445.507 910.945,458.521C909.052,475.019 903.04,472.264 896.648,482.487C895.348,484.567 895.45,508.103 893.902,509.336C890.237,512.252 884.079,510.095 881.748,508.348C880.125,507.131 884.354,484.422 883.413,481.728Z" style="fill:rgb(162,162,162);"/>
            <clipPath id="_clip10">
                <path d="M883.413,481.728C879.435,470.332 870.886,470.882 871.212,454.279C871.537,437.677 875.109,398.908 879.47,399.161C883.854,399.415 878.703,454.84 883.952,455.267C886.978,455.513 890.062,399.777 894.517,400.203C898.926,400.624 895.141,455.9 898.65,456.044C903.875,456.259 906.506,401.553 910.371,401.906C914.129,402.25 912.438,445.507 910.945,458.521C909.052,475.019 903.04,472.264 896.648,482.487C895.348,484.567 895.45,508.103 893.902,509.336C890.237,512.252 884.079,510.095 881.748,508.348C880.125,507.131 884.354,484.422 883.413,481.728Z"/>
            </clipPath>
            <g clip-path="url(#_clip10)">
                <g transform="matrix(1,0,0,1,-6.03299,-5.03429)">
                    <path d="M883.413,481.728C879.435,470.332 870.886,470.882 871.212,454.279C871.537,437.677 878.266,405.223 882.61,405.67C887.861,406.209 879.4,460.389 887.182,460.516C889.847,460.56 889.642,460.188 890.116,456.783C892.58,439.051 892.985,403.561 896.718,404.108C906.342,405.518 892.067,460.704 901.279,461.006C902.975,461.062 904.338,460.983 905.496,458.534C911.301,446.267 911.146,405.57 914.368,405.865C918.127,406.208 912.975,445.178 911.482,458.192C909.59,474.691 902.469,474.657 896.077,484.88C894.777,486.96 895.45,508.103 893.902,509.336C890.237,512.252 884.079,510.095 881.748,508.348C880.125,507.131 884.354,484.422 883.413,481.728Z" style="fill:rgb(203,203,203);"/>
                </g>
            </g>
        </g>
        <g transform="matrix(1.96828,-0.0776902,0.0910579,2.28713,-1648.79,-700.756)">
            <path d="M894.733,521.039C894.731,516.411 879.166,514.096 877.116,519.266C874.271,526.442 857.889,613.06 856.576,619.764C855.262,626.469 860.172,629.033 870.233,630.267C879.581,631.412 885.697,630.603 886.373,623.061C887.058,615.403 894.735,526.188 894.733,521.039Z" style="fill:rgb(66,157,208);"/>
            <clipPath id="_clip11">
                <path d="M894.733,521.039C894.731,516.411 879.166,514.096 877.116,519.266C874.271,526.442 857.889,613.06 856.576,619.764C855.262,626.469 860.172,629.033 870.233,630.267C879.581,631.412 885.697,630.603 886.373,623.061C887.058,615.403 894.735,526.188 894.733,521.039Z"/>
            </clipPath>
            <g clip-path="url(#_clip11)">
                <g transform="matrix(0.613179,0.0208287,-0.023094,0.499194,342.346,288.073)">
                    <path d="M908.388,458.321C906.357,457.991 904.021,500.597 901.008,542.765C898.289,580.819 897.017,615.693 889.962,622.587C884.671,627.756 868.027,630.246 868.237,634.96C868.335,637.161 876.443,633.209 885.629,634.496C895.819,635.923 902.681,640.093 903.532,636.666C905.407,629.103 906.657,593.18 908.429,556.132C910.269,517.649 911.265,458.788 908.388,458.321Z" style="fill:rgb(139,188,216);"/>
                </g>
            </g>
        </g>
    </g>
    <g transform="matrix(1,0,0,1,31.7996,22.2427)">
        <g transform="matrix(0.985275,-0.170976,0.170976,0.985275,-102.411,66.1548)">
            <path d="M917.05,449.858C917.05,449.858 917.382,455.226 917.134,422.745C917.084,416.137 903.66,402.929 895.959,390.872C888.634,379.403 893.819,317.252 908.321,277.191C921.642,240.394 937.518,215.788 948.651,204.121C957.286,195.074 963.068,193.808 962.595,200.672C960.582,229.87 936.548,452.343 936.548,452.343L917.05,449.858Z" style="fill:rgb(193,193,193);"/>
            <clipPath id="_clip12">
                <path d="M917.05,449.858C917.05,449.858 917.382,455.226 917.134,422.745C917.084,416.137 903.66,402.929 895.959,390.872C888.634,379.403 893.819,317.252 908.321,277.191C921.642,240.394 937.518,215.788 948.651,204.121C957.286,195.074 963.068,193.808 962.595,200.672C960.582,229.87 936.548,452.343 936.548,452.343L917.05,449.858Z"/>
            </clipPath>
            <g clip-path="url(#_clip12)">
                <g transform="matrix(1,0,0,1,0.26207,7.63785)">
                    <path d="M912.853,376.196C902.854,377.704 899.487,363.199 905.65,327.031C908.29,311.535 916.026,273.619 926.949,273.979C935.265,274.254 924.581,318.438 922.204,336.267C920.5,349.043 917.245,375.533 912.853,376.196Z" style="fill:rgb(231,231,231);"/>
                </g>
            </g>
        </g>
        <g transform="matrix(1.92602,-0.413075,0.480762,2.23789,-1069.89,-450.64)">
            <path d="M894.733,521.039C894.731,516.411 879.166,514.096 877.116,519.266C874.271,526.442 857.889,613.06 856.576,619.764C855.262,626.469 860.172,629.033 870.233,630.267C879.581,631.412 885.697,630.603 886.373,623.061C887.058,615.403 894.735,526.188 894.733,521.039Z" style="fill:rgb(66,157,208);"/>
            <clipPath id="_clip13">
                <path d="M894.733,521.039C894.731,516.411 879.166,514.096 877.116,519.266C874.271,526.442 857.889,613.06 856.576,619.764C855.262,626.469 860.172,629.033 870.233,630.267C879.581,631.412 885.697,630.603 886.373,623.061C887.058,615.403 894.735,526.188 894.733,521.039Z"/>
            </clipPath>
            <g clip-path="url(#_clip13)">
                <g transform="matrix(0.613179,0.0208287,-0.023094,0.499194,342.346,288.073)">
                    <path d="M908.388,458.321C906.357,457.991 904.021,500.597 901.008,542.765C898.289,580.819 897.017,615.693 889.962,622.587C884.671,627.756 868.027,630.246 868.237,634.96C868.335,637.161 876.443,633.209 885.629,634.496C895.819,635.923 902.681,640.093 903.532,636.666C905.407,629.103 906.657,593.18 908.429,556.132C910.269,517.649 911.265,458.788 908.388,458.321Z" style="fill:rgb(139,188,216);"/>
                </g>
            </g>
        </g>
    </g>
    <g transform="matrix(1.00773,0,0,1,2.5315,37.0331)">
        <g transform="matrix(70,0,0,70,914.754,673.459)">
        </g>
        <text x="182.693px" y="673.459px" style="font-family:'ArialRoundedMTBold', 'Arial Rounded MT Bold', sans-serif;font-size:70px;fill:rgb(137,191,82);">R<tspan x="231.297px 272.893px " y="673.459px 673.459px ">es</tspan>our<tspan x="424.241px 465.838px " y="673.459px 673.459px ">ce</tspan> not f<tspan x="674.163px 716.443px " y="673.459px 673.459px ">ou</tspan>nd…</text>
    </g>
    <g transform="matrix(1.07926,-0.0740146,0.0740146,1.07926,-25.3632,82.2137)">
        <path d="M317.929,95.257L299.958,85.283L302.436,82.894L312.561,88.89L316.329,91.118C316.219,90.933 315.525,89.725 314.248,87.494L308.51,77.037L310.975,74.661L321.006,80.825L324.319,82.848L322.499,79.334L317.037,68.816L319.368,66.568L328.586,84.981L326.095,87.383L315.674,81.081L312.803,79.196L320.433,92.842L317.929,95.257Z" style="fill:rgb(137,191,82);fill-rule:nonzero;"/>
        <path d="M341.755,65.675L344.7,63.844C345.541,65.749 345.739,67.595 345.295,69.382C344.85,71.168 343.74,72.778 341.964,74.212C339.727,76.017 337.398,76.76 334.975,76.441C332.553,76.121 330.338,74.718 328.331,72.232C326.254,69.66 325.304,67.128 325.482,64.638C325.659,62.148 326.804,60.05 328.916,58.345C330.96,56.695 333.192,56.042 335.612,56.388C338.032,56.733 340.261,58.168 342.299,60.693C342.423,60.846 342.604,61.081 342.843,61.395L331.439,70.603C332.891,72.205 334.405,73.108 335.98,73.311C337.555,73.514 338.981,73.1 340.258,72.069C341.208,71.302 341.818,70.397 342.087,69.356C342.355,68.314 342.245,67.087 341.755,65.675ZM329.862,68.355L338.401,61.462C337.247,60.268 336.142,59.567 335.085,59.358C333.453,59.026 331.98,59.391 330.665,60.453C329.475,61.414 328.796,62.62 328.628,64.072C328.46,65.524 328.871,66.951 329.862,68.355Z" style="fill:rgb(137,191,82);fill-rule:nonzero;"/>
        <path d="M360.991,56.691C360.569,58.254 360.011,59.537 359.315,60.539C358.62,61.542 357.733,62.414 356.656,63.155C354.877,64.379 353.211,64.885 351.658,64.673C350.104,64.461 348.863,63.679 347.933,62.327C347.387,61.534 347.069,60.686 346.979,59.782C346.889,58.878 347,58.027 347.312,57.229C347.623,56.43 348.075,55.678 348.667,54.971C349.108,54.458 349.827,53.761 350.824,52.881C352.858,51.093 354.272,49.655 355.067,48.569C354.819,48.186 354.66,47.944 354.59,47.842C353.821,46.724 353.02,46.114 352.186,46.014C351.059,45.876 349.803,46.283 348.421,47.234C347.13,48.122 346.333,49.003 346.029,49.879C345.725,50.754 345.821,51.868 346.316,53.219L343.381,54.699C342.835,53.383 342.599,52.179 342.672,51.088C342.745,49.997 343.179,48.897 343.974,47.789C344.769,46.68 345.862,45.647 347.255,44.689C348.637,43.738 349.872,43.128 350.96,42.859C352.048,42.59 352.964,42.562 353.71,42.776C354.456,42.989 355.169,43.416 355.849,44.056C356.262,44.461 356.888,45.273 357.727,46.492L360.244,50.152C361.999,52.703 363.168,54.276 363.75,54.872C364.332,55.467 365.009,55.956 365.781,56.339L362.914,58.31C362.238,57.937 361.597,57.397 360.991,56.691ZM356.546,50.719C355.83,51.811 354.573,53.184 352.777,54.839C351.761,55.778 351.089,56.51 350.761,57.035C350.433,57.56 350.277,58.105 350.292,58.671C350.307,59.238 350.479,59.76 350.808,60.237C351.311,60.969 352.007,61.388 352.897,61.495C353.787,61.602 354.765,61.288 355.832,60.554C356.889,59.827 357.671,58.949 358.176,57.92C358.681,56.891 358.85,55.842 358.684,54.774C358.553,53.951 358.071,52.935 357.239,51.725L356.546,50.719Z" style="fill:rgb(137,191,82);fill-rule:nonzero;"/>
        <path d="M374.012,47.949L375.946,50.218C375.245,50.872 374.578,51.391 373.945,51.774C372.91,52.399 372.009,52.72 371.241,52.738C370.473,52.755 369.812,52.567 369.257,52.175C368.702,51.782 367.908,50.73 366.874,49.02L361.024,39.344L358.934,40.607L357.594,38.39L359.684,37.126L357.166,32.961L358.967,29.537L362.519,35.413L365.385,33.68L366.726,35.897L363.859,37.63L369.805,47.465C370.296,48.278 370.662,48.77 370.903,48.942C371.144,49.113 371.419,49.199 371.729,49.199C372.039,49.199 372.405,49.071 372.827,48.816C373.144,48.625 373.539,48.336 374.012,47.949Z" style="fill:rgb(137,191,82);fill-rule:nonzero;"/>
        <path d="M374.416,44.281L377.076,42.271C377.862,43.348 378.793,43.997 379.87,44.219C380.947,44.441 382.154,44.194 383.493,43.478C384.842,42.757 385.696,41.947 386.055,41.048C386.414,40.15 386.395,39.331 386,38.591C385.645,37.927 385.077,37.559 384.297,37.487C383.755,37.441 382.577,37.644 380.762,38.097C378.317,38.705 376.572,39.033 375.528,39.081C374.483,39.129 373.558,38.917 372.753,38.445C371.948,37.973 371.319,37.312 370.865,36.464C370.452,35.691 370.246,34.882 370.248,34.034C370.249,33.187 370.439,32.383 370.815,31.622C371.092,31.04 371.562,30.422 372.226,29.766C372.889,29.11 373.673,28.541 374.576,28.058C375.936,27.331 377.234,26.888 378.472,26.73C379.709,26.572 380.752,26.697 381.599,27.104C382.447,27.511 383.262,28.226 384.046,29.248L381.384,31.175C380.776,30.353 380.026,29.859 379.133,29.693C378.239,29.527 377.222,29.749 376.079,30.36C374.73,31.081 373.887,31.819 373.549,32.574C373.21,33.328 373.201,34.004 373.521,34.603C373.725,34.984 374.028,35.262 374.43,35.439C374.838,35.626 375.353,35.687 375.975,35.62C376.327,35.572 377.326,35.36 378.971,34.983C381.346,34.427 383.038,34.106 384.049,34.02C385.059,33.935 385.979,34.104 386.807,34.529C387.636,34.953 388.318,35.666 388.853,36.666C389.377,37.646 389.584,38.72 389.475,39.891C389.367,41.061 388.9,42.171 388.076,43.22C387.252,44.269 386.16,45.157 384.8,45.885C382.548,47.089 380.582,47.539 378.901,47.234C377.22,46.93 375.725,45.946 374.416,44.281Z" style="fill:rgb(137,191,82);fill-rule:nonzero;"/>
    </g>
</svg>
